<svg width="30" height="30" viewBox="0 0 30 30" fill="none" xmlns="http://www.w3.org/2000/svg">
<g clip-path="url(#clip0_268_239)">
<path fill-rule="evenodd" clip-rule="evenodd" d="M6.87407 1.23005C7.01658 0.853207 7.29544 0.543637 7.6554 0.362665C8.01536 0.181693 8.43016 0.142521 8.81764 0.252908L16.5341 2.45148C16.922 2.56212 17.2541 2.81458 17.4645 3.15876C17.6749 3.50293 17.7482 3.91364 17.6698 4.30934L15.4284 15.6751C15.1255 17.2091 14.2878 18.5858 13.0646 19.5599C11.8413 20.5339 10.312 21.042 8.74907 20.9936L7.30907 26.0443L8.89478 26.4965C9.30482 26.6133 9.65168 26.8882 9.85904 27.2607C10.0664 27.6332 10.1173 28.0729 10.0005 28.4829C9.8837 28.893 9.60881 29.2398 9.23628 29.4472C8.86375 29.6545 8.42411 29.7054 8.01407 29.5886L4.95621 28.7143L4.80621 28.6715L1.74407 27.7993C1.33402 27.6823 0.98728 27.4071 0.78012 27.0344C0.572959 26.6616 0.522349 26.2219 0.639423 25.8118C0.756497 25.4018 1.03167 25.055 1.40439 24.8479C1.77712 24.6407 2.21688 24.5901 2.62692 24.7072L4.21692 25.1615L5.65692 20.1108C4.30354 19.3279 3.27204 18.09 2.74618 16.6176C2.22031 15.1451 2.23425 13.5339 2.78549 12.0708L6.87407 1.23005ZM7.90478 7.60291L13.4205 9.24434L14.2305 5.13648L9.35978 3.74791L7.90478 7.60291ZM21.4326 21.1479C19.7177 21.1483 18.07 20.4812 16.8384 19.2879C17.4276 18.3387 17.8393 17.2902 18.0534 16.1936L19.5491 8.61005L22.7184 7.85362L21.3662 3.89148L20.3762 4.14005C20.4133 3.02209 20.0119 1.93392 19.2576 1.10791L22.0176 0.415765C22.4088 0.31722 22.8228 0.369394 23.1773 0.561928C23.5318 0.754461 23.8009 1.07327 23.9312 1.45505L27.6726 12.4201C28.1771 13.8994 28.1401 15.5098 27.5684 16.9644C26.9967 18.4191 25.9272 19.6236 24.5505 20.3636L25.8276 25.4572L27.4241 25.0565C27.8375 24.9528 28.2752 25.0175 28.6409 25.2365C29.0066 25.4556 29.2703 25.8109 29.3741 26.2243C29.4778 26.6378 29.413 27.0755 29.194 27.4412C28.975 27.8069 28.6197 28.0706 28.2062 28.1743L25.1141 28.9501L24.9876 28.9822L21.8826 29.7622C21.4692 29.8659 21.0315 29.8011 20.6658 29.5821C20.3001 29.3631 20.0364 29.0078 19.9326 28.5943C19.8289 28.1809 19.8937 27.7432 20.1127 27.3775C20.3317 27.0118 20.687 26.7481 21.1005 26.6443L22.7098 26.2393L21.4326 21.1479Z" fill="currentColor"/>
</g>
<defs>
<clipPath id="clip0_268_239">
<rect width="30" height="30" fill="white"/>
</clipPath>
</defs>
</svg>
