<svg width="40" height="40" viewBox="0 0 40 40" fill="none" xmlns="http://www.w3.org/2000/svg">
<rect width="40" height="40" rx="12" fill="#FF0000"/>
<path d="M9.60379 9.60379C9.99055 9.2175 10.5148 9.00053 11.0615 9.00053C11.6081 9.00053 12.1324 9.2175 12.5191 9.60379L20 17.0819L27.4809 9.60379C27.6723 9.41236 27.8995 9.26052 28.1497 9.15692C28.3998 9.05332 28.6678 9 28.9385 9C29.2093 9 29.4773 9.05332 29.7274 9.15692C29.9775 9.26052 30.2048 9.41236 30.3962 9.60379C30.5876 9.79521 30.7395 10.0225 30.8431 10.2726C30.9467 10.5227 31 10.7907 31 11.0615C31 11.3322 30.9467 11.6002 30.8431 11.8503C30.7395 12.1004 30.5876 12.3277 30.3962 12.5191L22.9181 20L30.3962 27.4809C30.7828 27.8675 31 28.3918 31 28.9385C31 29.4853 30.7828 30.0096 30.3962 30.3962C30.0096 30.7828 29.4853 31 28.9385 31C28.3918 31 27.8675 30.7828 27.4809 30.3962L20 22.9181L12.5191 30.3962C12.1325 30.7828 11.6082 31 11.0615 31C10.5147 31 9.99038 30.7828 9.60379 30.3962C9.21719 30.0096 9 29.4853 9 28.9385C9 28.3918 9.21719 27.8675 9.60379 27.4809L17.0819 20L9.60379 12.5191C9.2175 12.1324 9.00053 11.6081 9.00053 11.0615C9.00053 10.5148 9.2175 9.99055 9.60379 9.60379Z" fill="#F8FCF6"/>
</svg>
