<svg width="30" height="30" viewBox="-6 -4 40 40" fill="none" xmlns="http://www.w3.org/2000/svg">
<path d="M26.25 14.9998H3.75C3.25272 14.9998 2.77581 15.1974 2.42417 15.549C2.07254 15.9006 1.875 16.3775 1.875 16.8748V20.6248C1.875 21.1221 2.07254 21.599 2.42417 21.9507C2.77581 22.3023 3.25272 22.4998 3.75 22.4998H26.25C26.7473 22.4998 27.2242 22.3023 27.5758 21.9507C27.9275 21.599 28.125 21.1221 28.125 20.6248V16.8748C28.125 16.3775 27.9275 15.9006 27.5758 15.549C27.2242 15.1974 26.7473 14.9998 26.25 14.9998ZM26.25 20.6248H11.25V16.8748H26.25V20.6248ZM23.5547 7.04045C24.4922 5.37288 24.4242 4.49631 24.3 4.12131C24.2456 3.94244 24.1376 3.78456 23.9906 3.66897C23.8776 3.61933 23.7754 3.54785 23.69 3.45862C23.6047 3.36939 23.5378 3.26418 23.4932 3.14902C23.4486 3.03387 23.4272 2.91104 23.4303 2.7876C23.4333 2.66415 23.4607 2.54252 23.5108 2.42968C23.561 2.31685 23.633 2.21504 23.7226 2.13009C23.8122 2.04515 23.9177 1.97875 24.0331 1.93471C24.1485 1.89066 24.2714 1.86985 24.3948 1.87345C24.5182 1.87705 24.6397 1.90499 24.7523 1.95569C25.0675 2.11618 25.3473 2.33826 25.5752 2.60879C25.8031 2.87932 25.9743 3.1928 26.0789 3.53069C26.4727 4.71897 26.1738 6.20842 25.1883 7.9592C24.2508 9.62678 24.3188 10.5045 24.443 10.8795C24.4976 11.058 24.6056 11.2154 24.7523 11.3307C24.8654 11.3803 24.9676 11.4518 25.0529 11.541C25.1383 11.6303 25.2052 11.7355 25.2498 11.8506C25.2943 11.9658 25.3157 12.0886 25.3127 12.2121C25.3097 12.3355 25.2823 12.4571 25.2321 12.57C25.182 12.6828 25.11 12.7846 25.0204 12.8696C24.9308 12.9545 24.8252 13.0209 24.7099 13.0649C24.5945 13.109 24.4716 13.1298 24.3482 13.1262C24.2247 13.1226 24.1032 13.0947 23.9906 13.044C23.6753 12.8837 23.3953 12.6617 23.1675 12.3911C22.9396 12.1206 22.7684 11.807 22.6641 11.469C22.2738 10.2807 22.5727 8.78889 23.5547 7.04045ZM18.8672 7.04045C19.8047 5.37288 19.7367 4.49631 19.6125 4.12131C19.5581 3.94244 19.4501 3.78456 19.3031 3.66897C19.1901 3.61933 19.0879 3.54785 19.0025 3.45862C18.9172 3.36939 18.8503 3.26418 18.8057 3.14902C18.7611 3.03387 18.7397 2.91104 18.7428 2.7876C18.7458 2.66415 18.7732 2.54252 18.8233 2.42968C18.8735 2.31685 18.9455 2.21504 19.0351 2.13009C19.1247 2.04515 19.2302 1.97875 19.3456 1.93471C19.461 1.89066 19.5839 1.86985 19.7073 1.87345C19.8307 1.87705 19.9522 1.90499 20.0648 1.95569C20.38 2.11618 20.6598 2.33826 20.8877 2.60879C21.1156 2.87932 21.2868 3.1928 21.3914 3.53069C21.7852 4.71897 21.4863 6.20842 20.5008 7.9592C19.5633 9.62678 19.6313 10.5045 19.7555 10.8795C19.8101 11.058 19.9181 11.2154 20.0648 11.3307C20.1779 11.3803 20.2801 11.4518 20.3654 11.541C20.4508 11.6303 20.5177 11.7355 20.5623 11.8506C20.6068 11.9658 20.6282 12.0886 20.6252 12.2121C20.6222 12.3355 20.5948 12.4571 20.5446 12.57C20.4945 12.6828 20.4225 12.7846 20.3329 12.8696C20.2433 12.9545 20.1377 13.0209 20.0224 13.0649C19.907 13.109 19.7841 13.1298 19.6607 13.1262C19.5372 13.1226 19.4157 13.0947 19.3031 13.044C18.9878 12.8837 18.7078 12.6617 18.48 12.3911C18.2521 12.1206 18.0809 11.807 17.9766 11.469C17.5863 10.2807 17.8852 8.78889 18.8672 7.04045Z" fill="currentColor"/>
</svg>
