<svg width="30" height="30" viewBox="2 1 25 25" fill="none" xmlns="http://www.w3.org/2000/svg">
<path d="M19.0625 8.125C19.8084 8.125 20.5238 7.82868 21.0512 7.30124C21.5787 6.77379 21.875 6.05842 21.875 5.3125C21.875 4.56658 21.5787 3.85121 21.0512 3.32376C20.5238 2.79632 19.8084 2.5 19.0625 2.5C18.3166 2.5 17.6012 2.79632 17.0737 3.32376C16.5463 3.85121 16.25 4.56658 16.25 5.3125C16.25 6.05842 16.5463 6.77379 17.0737 7.30124C17.6012 7.82868 18.3166 8.125 19.0625 8.125ZM13.4125 10.8012C12.6331 10.995 12.1012 11.2863 11.6719 11.6475C11.0281 12.19 10.5081 12.9725 9.80561 14.2025C9.64109 14.4903 9.36897 14.701 9.0491 14.7882C8.72923 14.8755 8.38782 14.832 8.09998 14.6675C7.81214 14.503 7.60144 14.2309 7.51424 13.911C7.42703 13.5911 7.47046 13.2497 7.63498 12.9619C8.33436 11.7388 9.04123 10.5944 10.0619 9.73562C11.1269 8.83812 12.4306 8.33063 14.1887 8.135C14.9237 8.05375 15.7325 8.07 16.4906 8.40812C17.2862 8.76375 17.8675 9.40062 18.2637 10.2519C18.7975 11.3975 19.1944 12.0794 19.5119 12.475C19.665 12.6644 19.7719 12.7525 19.8325 12.7919C19.8806 12.8231 19.9012 12.8256 19.9087 12.8269C19.9631 12.8331 20.14 12.8269 20.6575 12.5975C20.8831 12.4975 21.1294 12.3775 21.4306 12.2306L21.5025 12.1956C21.8709 12.0139 22.2427 11.8388 22.6175 11.6706C22.9201 11.5378 23.263 11.5302 23.5713 11.6495C23.8795 11.7688 24.1279 12.0054 24.2622 12.3074C24.3964 12.6094 24.4056 12.9523 24.2877 13.261C24.1699 13.5698 23.9345 13.8193 23.6331 13.955C23.2857 14.1109 22.9413 14.2732 22.6 14.4419L22.5181 14.4819C22.23 14.6225 21.94 14.7644 21.6681 14.8844C21.1056 15.1331 20.3869 15.4031 19.6075 15.3088C18.785 15.2087 18.1512 14.7444 17.6294 14.1213L15.9212 17.4169L18.2837 20.4906C18.4246 20.6741 18.5118 20.893 18.5356 21.1231L19.0556 26.1206C19.0754 26.2853 19.0623 26.4522 19.0169 26.6117C18.9716 26.7713 18.8949 26.9202 18.7915 27.0498C18.688 27.1794 18.5598 27.2871 18.4143 27.3667C18.2688 27.4463 18.1089 27.4961 17.9439 27.5132C17.779 27.5304 17.6123 27.5146 17.4535 27.4667C17.2947 27.4188 17.1471 27.3398 17.0192 27.2342C16.8912 27.1287 16.7856 26.9988 16.7083 26.852C16.6311 26.7052 16.5839 26.5446 16.5694 26.3794L16.0856 21.7337L14.6506 19.8662L14.6381 19.8894L14.5856 19.7819L11.9344 16.3319C11.804 16.1623 11.7194 15.9621 11.6885 15.7505C11.6577 15.5389 11.6816 15.3229 11.7581 15.1231L13.4125 10.8012Z" fill="currentColor"/>
<path d="M11.52 18.1289L10.6 20.6039L6.97496 20.3164C6.81015 20.3011 6.64394 20.3187 6.48597 20.3681C6.32801 20.4176 6.18144 20.4979 6.05477 20.6044C5.9281 20.711 5.82385 20.8416 5.74807 20.9888C5.67229 21.1359 5.62649 21.2967 5.61333 21.4617C5.60017 21.6267 5.61991 21.7926 5.67141 21.9499C5.7229 22.1072 5.80513 22.2528 5.91331 22.378C6.02149 22.5033 6.15347 22.6058 6.3016 22.6797C6.44973 22.7536 6.61105 22.7973 6.77621 22.8083L11.3437 23.1708C11.6148 23.1924 11.8855 23.1249 12.1148 22.9788C12.3441 22.8326 12.5195 22.6156 12.6143 22.3608L13.3175 20.4683L11.52 18.1289Z" fill="currentColor"/>
</svg>
