<svg width="36" height="52" viewBox="0 0 36 52" fill="none" xmlns="http://www.w3.org/2000/svg">
<path d="M0.225 10.0003H9C9.59674 10.0003 10.169 10.2462 10.591 10.6837C11.0129 11.1213 11.25 11.7148 11.25 12.3337C11.25 12.9525 11.0129 13.546 10.591 13.9836C10.169 14.4212 9.59674 14.667 9 14.667H0V21.667H9C9.59674 21.667 10.169 21.9128 10.591 22.3504C11.0129 22.788 11.25 23.3815 11.25 24.0003C11.25 24.6192 11.0129 25.2127 10.591 25.6502C10.169 26.0878 9.59674 26.3337 9 26.3337H0C0 29.4279 1.18526 32.3953 3.29505 34.5832C5.40483 36.7712 8.26631 38.0003 11.25 38.0003H15.75V42.667H11.25C10.6533 42.667 10.081 42.9128 9.65901 43.3504C9.23705 43.788 9 44.3815 9 45.0003C9 45.6192 9.23705 46.2127 9.65901 46.6502C10.081 47.0878 10.6533 47.3337 11.25 47.3337H24.75C25.3467 47.3337 25.919 47.0878 26.341 46.6502C26.7629 46.2127 27 45.6192 27 45.0003C27 44.3815 26.7629 43.788 26.341 43.3504C25.919 42.9128 25.3467 42.667 24.75 42.667H20.25V38.0003H24.75C27.7337 38.0003 30.5952 36.7712 32.705 34.5832C34.8147 32.3953 36 29.4279 36 26.3337H27C26.4033 26.3337 25.831 26.0878 25.409 25.6502C24.9871 25.2127 24.75 24.6192 24.75 24.0003C24.75 23.3815 24.9871 22.788 25.409 22.3504C25.831 21.9128 26.4033 21.667 27 21.667H36V14.667H27C26.4033 14.667 25.831 14.4212 25.409 13.9836C24.9871 13.546 24.75 12.9525 24.75 12.3337C24.75 11.7148 24.9871 11.1213 25.409 10.6837C25.831 10.2462 26.4033 10.0003 27 10.0003H35.775C35.2563 7.36514 33.8756 4.99674 31.8665 3.29595C29.8575 1.59515 27.3435 0.666444 24.75 0.666992H11.25C8.65653 0.666444 6.14253 1.59515 4.13347 3.29595C2.12441 4.99674 0.743693 7.36514 0.225 10.0003Z" fill="#B6D89A"/>
</svg>
