<svg width="211" height="175" viewBox="0 0 211 175" fill="none" xmlns="http://www.w3.org/2000/svg">
<g filter="url(#filter0_f_220_403)">
<path d="M2 60.1306C2 108.435 43.607 134.172 74.0567 157.216C84.8 165.342 95.15 173 105.5 173C115.85 173 126.2 165.352 136.943 157.206C167.403 134.182 209 108.435 209 60.1405C209 11.8459 152.075 -22.4331 105.5 24.0139C58.925 -22.4331 2 11.826 2 60.1306Z" fill="url(#paint0_linear_220_403)"/>
<path d="M136.642 156.808L136.641 156.808C131.265 160.884 126.019 164.811 120.83 167.722C115.641 170.632 110.553 172.5 105.5 172.5C100.447 172.5 95.3596 170.63 90.1704 167.719C84.981 164.808 79.7346 160.884 74.3584 156.818C71.4748 154.635 68.4946 152.431 65.4617 150.188C52.4497 140.564 38.4671 130.223 26.9767 117.806C12.8252 102.515 2.5 84.1199 2.5 60.1306C2.5 36.1769 16.6137 15.7156 36.4852 6.99829C56.3302 -1.70738 81.9893 1.27391 105.147 24.368L105.5 24.7201L105.853 24.368C129.011 1.27396 154.67 -1.70242 174.515 7.00695C194.386 15.728 208.5 36.1918 208.5 60.1405C208.5 84.1248 198.177 102.52 184.027 117.81C172.518 130.247 158.506 140.602 145.472 150.234C142.462 152.458 139.504 154.644 136.642 156.808Z" stroke="url(#paint1_linear_220_403)"/>
</g>
<defs>
<filter id="filter0_f_220_403" x="0" y="0" width="211" height="175" filterUnits="userSpaceOnUse" color-interpolation-filters="sRGB">
<feFlood flood-opacity="0" result="BackgroundImageFix"/>
<feBlend mode="normal" in="SourceGraphic" in2="BackgroundImageFix" result="shape"/>
<feGaussianBlur stdDeviation="1" result="effect1_foregroundBlur_220_403"/>
</filter>
<linearGradient id="paint0_linear_220_403" x1="105.5" y1="2" x2="105.5" y2="173" gradientUnits="userSpaceOnUse">
<stop stop-color="#F9F9F9"/>
<stop offset="1" stop-color="#FE3735"/>
</linearGradient>
<linearGradient id="paint1_linear_220_403" x1="105.5" y1="2" x2="105.5" y2="173" gradientUnits="userSpaceOnUse">
<stop stop-color="#ED1717"/>
</linearGradient>
</defs>
</svg>
