<svg width="277" height="246" viewBox="0 0 277 246" fill="none" xmlns="http://www.w3.org/2000/svg">
<g filter="url(#filter0_df_219_272)">
<path d="M138.375 41.0726L131.625 47.5726C132.5 48.4799 133.548 49.2016 134.708 49.6946C135.868 50.1875 137.115 50.4416 138.375 50.4416C139.635 50.4416 140.882 50.1875 142.042 49.6946C143.202 49.2016 144.25 48.4799 145.125 47.5726L138.375 41.0726ZM106.2 201.348C87.25 186.41 66.5375 171.823 50.1 153.323C34 135.173 22.75 114.01 22.75 86.5351H4C4 119.86 17.875 145.285 36.0875 165.773C53.9625 185.898 76.7625 202.023 94.5875 216.073L106.2 201.348ZM22.75 86.5351C22.75 59.6601 37.9375 37.1101 58.675 27.6226C78.825 18.4101 105.9 20.8476 131.625 47.5726L145.125 34.5851C114.625 2.87258 79.175 -2.36492 50.875 10.5726C23.2 23.2351 4 52.6351 4 86.5351H22.75ZM94.5875 216.073C101 221.123 107.875 226.498 114.837 230.573C121.8 234.648 129.75 237.948 138.375 237.948V219.198C134.5 219.198 129.95 217.698 124.3 214.385C118.637 211.085 112.775 206.535 106.2 201.348L94.5875 216.073ZM182.163 216.073C199.988 202.01 222.788 185.91 240.663 165.773C258.875 145.273 272.75 119.86 272.75 86.5351H254C254 114.01 242.75 135.173 226.65 153.323C210.213 171.823 189.5 186.41 170.55 201.348L182.163 216.073ZM272.75 86.5351C272.75 52.6351 253.562 23.2351 225.875 10.5726C197.575 -2.36492 162.15 2.87258 131.625 34.5726L145.125 47.5726C170.85 20.8601 197.925 18.4101 218.075 27.6226C238.812 37.1101 254 59.6476 254 86.5351H272.75ZM170.55 201.348C163.975 206.535 158.113 211.085 152.45 214.385C146.788 217.685 142.25 219.198 138.375 219.198V237.948C147 237.948 154.95 234.635 161.913 230.573C168.888 226.498 175.75 221.123 182.163 216.073L170.55 201.348Z" fill="url(#paint0_linear_219_272)"/>
</g>
<defs>
<filter id="filter0_df_219_272" x="0" y="0" width="276.75" height="245.948" filterUnits="userSpaceOnUse" color-interpolation-filters="sRGB">
<feFlood flood-opacity="0" result="BackgroundImageFix"/>
<feColorMatrix in="SourceAlpha" type="matrix" values="0 0 0 0 0 0 0 0 0 0 0 0 0 0 0 0 0 0 127 0" result="hardAlpha"/>
<feOffset dy="4"/>
<feGaussianBlur stdDeviation="2"/>
<feComposite in2="hardAlpha" operator="out"/>
<feColorMatrix type="matrix" values="0 0 0 0 0 0 0 0 0 0 0 0 0 0 0 0 0 0 0.25 0"/>
<feBlend mode="normal" in2="BackgroundImageFix" result="effect1_dropShadow_219_272"/>
<feBlend mode="normal" in="SourceGraphic" in2="effect1_dropShadow_219_272" result="shape"/>
<feGaussianBlur stdDeviation="2" result="effect2_foregroundBlur_219_272"/>
</filter>
<linearGradient id="paint0_linear_219_272" x1="138.375" y1="4" x2="138.375" y2="237.948" gradientUnits="userSpaceOnUse">
<stop stop-color="#F4C4C4"/>
<stop offset="1" stop-color="#F40C09"/>
</linearGradient>
</defs>
</svg>
