<svg width="37" height="37" viewBox="0 0 37 37" fill="none" xmlns="http://www.w3.org/2000/svg">
<path d="M18.5 0C20.7817 0 22.6111 2.05813 22.6111 4.625C22.6111 7.19187 20.7817 9.25 18.5 9.25C16.2183 9.25 14.3889 7.19187 14.3889 4.625C14.3889 2.05813 16.2389 0 18.5 0ZM37 27.75V23.125C32.3956 23.125 28.4489 20.905 25.4889 16.9275L22.7344 13.2275C22.352 12.706 21.8717 12.2862 21.3279 11.9983C20.7841 11.7104 20.1904 11.5616 19.5894 11.5625H17.4722C16.2183 11.5625 15.0672 12.1638 14.2861 13.2275L11.5317 16.9275C8.55111 20.905 4.60444 23.125 0 23.125V27.75C5.69389 27.75 10.6683 25.0444 14.3889 20.2344V25.4375L6.41333 29.0219C5.03611 29.6462 4.11111 31.2187 4.11111 32.8606C4.11111 35.15 5.75556 37 7.79056 37H12.3333V35.8438C12.3333 34.3105 12.8748 32.84 13.8385 31.7558C14.8022 30.6716 16.1093 30.0625 17.4722 30.0625H23.6389C24.2144 30.0625 24.6667 30.5713 24.6667 31.2188C24.6667 31.8662 24.2144 32.375 23.6389 32.375H17.4722C15.7661 32.375 14.3889 33.9244 14.3889 35.8438V37H29.2094C31.2444 37 32.8889 35.15 32.8889 32.8606C32.8889 31.2187 31.9639 29.6462 30.5867 29.0219L22.6111 25.4375V20.2344C26.3317 25.0444 31.3061 27.75 37 27.75Z" fill="#F5FAF3"/>
</svg>
