<svg width="16" height="16" viewBox="0 0 16 16" fill="none" xmlns="http://www.w3.org/2000/svg">
<path d="M15.7865 3.6791L15.7782 3.67432C15.5555 3.54381 15.2468 3.3935 14.89 3.26611C14.1766 3.01187 13.2901 2.92361 12.4648 3.07243C11.6391 3.21932 10.8742 3.60145 10.3474 4.07012C10.0843 4.30542 9.87602 4.54404 9.73677 4.73626C9.70204 4.78296 9.66879 4.8304 9.63706 4.87853C9.58876 4.8954 9.53984 4.91355 9.49127 4.9344C9.29869 5.01318 9.09764 5.11232 8.90586 5.23732C8.71318 5.36131 8.52614 5.50703 8.35182 5.66986C8.1764 5.83226 8.01969 6.01432 7.8749 6.2049C7.72905 6.39539 7.60442 6.59812 7.49215 6.80405L7.41023 6.95921L7.33654 7.11605L7.29989 7.19436L7.26714 7.2732L7.20215 7.43038C7.1818 7.48279 7.16367 7.53535 7.14451 7.5875C7.12638 7.63979 7.10512 7.69146 7.08992 7.74354L7.07862 7.77951C6.98275 7.6617 6.8794 7.55206 6.76939 7.45311C6.64389 7.34029 6.51176 7.23988 6.37753 7.15112C6.10849 6.9737 5.82938 6.84716 5.57197 6.75744C5.43625 6.71119 5.29706 6.6722 5.15524 6.64072L5.15708 6.63539L5.15711 6.63536C5.15711 6.63536 5.03226 6.56116 4.83417 6.47795C4.6346 6.39149 4.36202 6.29673 4.05324 6.22506C3.43579 6.08215 2.69915 6.09072 2.0444 6.28753C1.38897 6.48283 0.814867 6.86491 0.447093 7.29604C0.263528 7.5124 0.125307 7.72645 0.0372282 7.89628L0.0345552 7.90127C-0.0525898 8.06503 0.0304331 8.25709 0.223531 8.33874L0.231002 8.3419C0.430572 8.42833 0.70315 8.52311 1.01193 8.59479C1.62938 8.73769 2.36602 8.72913 3.02077 8.53232C3.67619 8.33704 4.2503 7.95496 4.61808 7.52381C4.69617 7.43164 4.76898 7.33651 4.83629 7.23874C4.94057 7.26213 5.04274 7.2915 5.14204 7.32662C5.31391 7.38931 5.50041 7.47629 5.67934 7.5979C5.76851 7.65878 6.46892 8.26155 6.46892 8.95673C6.49627 9.07503 6.50949 9.19524 6.50838 9.31566L6.50454 9.77724L6.4964 10.7212L6.45269 15.7818V15.7892C6.45517 16.0751 7.71221 16.0678 7.70973 15.7818L7.66603 10.7212L7.66281 10.3498C7.66889 10.3235 7.67198 10.2963 7.6716 10.2685L7.6677 9.97609L7.66699 9.90306L7.66847 9.82629L7.67166 9.65333C7.67176 9.59186 7.67607 9.52509 7.67974 9.45495C7.68396 9.38487 7.68619 9.31083 7.69253 9.23414L7.71375 8.99494C7.72161 8.91233 7.73427 8.82768 7.7447 8.74016C7.76856 8.56569 7.79961 8.38259 7.84067 8.19515L7.85545 8.12437L7.87329 8.05383L7.90927 7.91111C7.92025 7.86286 7.93683 7.81604 7.95046 7.76797C7.96504 7.72022 7.97857 7.67183 7.99412 7.6239L8.04423 7.48062L8.06939 7.40857L8.09805 7.33763L8.1554 7.19518L8.21988 7.05525C8.30828 6.86974 8.40686 6.68781 8.52276 6.51938C8.6377 6.35067 8.76188 6.19007 8.90055 6.04889C9.03832 5.90709 9.18536 5.78111 9.33608 5.67386C9.48609 5.56555 9.64273 5.48037 9.79251 5.41124C9.8481 5.38412 9.90436 5.36242 9.95875 5.34147C10.1733 5.461 10.4524 5.59237 10.7697 5.70567C11.4832 5.95991 12.3697 6.04817 13.1949 5.89935C14.0207 5.75244 14.7856 5.3703 15.3124 4.90166C15.5755 4.66633 15.7838 4.42772 15.923 4.23549L15.9272 4.22984C16.0643 4.04476 16.0025 3.80306 15.7865 3.6791Z" fill="#2BA52E"/>
</svg>
