<svg width="36" height="30" viewBox="0 0 36 30" fill="none" xmlns="http://www.w3.org/2000/svg">
<path fill-rule="evenodd" clip-rule="evenodd" d="M27.0333 10.8547C27.2677 10.6206 27.5854 10.4891 27.9167 10.4891C28.2479 10.4891 28.5656 10.6206 28.8 10.8547L31.25 13.3047L33.7 10.8547C33.937 10.6339 34.2504 10.5137 34.5742 10.5194C34.898 10.5251 35.207 10.6563 35.436 10.8853C35.6651 11.1143 35.7962 11.4233 35.802 11.7471C35.8077 12.071 35.6875 12.3844 35.4667 12.6213L33.0183 15.0713L35.4683 17.5213C35.6959 17.7572 35.8218 18.073 35.8188 18.4008C35.8158 18.7285 35.6842 19.042 35.4523 19.2736C35.2204 19.5053 34.9068 19.6366 34.5791 19.6393C34.2513 19.642 33.9356 19.5158 33.7 19.288L31.25 16.838L28.8 19.288C28.563 19.5088 28.2496 19.629 27.9258 19.6233C27.602 19.6176 27.293 19.4864 27.064 19.2574C26.8349 19.0284 26.7038 18.7194 26.698 18.3955C26.6923 18.0717 26.8125 17.7583 27.0333 17.5213L29.4833 15.0713L27.0333 12.6213C26.7992 12.387 26.6678 12.0693 26.6678 11.738C26.6678 11.4068 26.7992 11.0891 27.0333 10.8547ZM19.645 0.731343C21.5833 -0.546991 24.1667 0.844676 24.1667 3.16634V26.9763C24.1667 29.2997 21.5833 30.6897 19.645 29.4113L9.645 22.8197C9.57735 22.7746 9.49798 22.7502 9.41667 22.7497H4.58333C3.36776 22.7497 2.20197 22.2668 1.34243 21.4072C0.482886 20.5477 0 19.3819 0 18.1663V11.9763C0 10.7608 0.482886 9.59498 1.34243 8.73544C2.20197 7.8759 3.36776 7.39301 4.58333 7.39301H9.41667C9.49838 7.39328 9.57836 7.36951 9.64667 7.32468L19.645 0.731343Z" fill="#8EBB5B"/>
</svg>
