<svg width="25" height="25" viewBox="0 0 25 25" fill="none" xmlns="http://www.w3.org/2000/svg">
<path d="M16.7295 2.55611C17.0225 2.84912 17.187 3.24648 17.187 3.6608C17.187 4.07512 17.0225 4.47247 16.7295 4.76549L8.99516 12.4999L16.7295 20.2342C17.0142 20.5289 17.1716 20.9236 17.1681 21.3333C17.1645 21.743 17.0002 22.1349 16.7105 22.4246C16.4208 22.7143 16.0289 22.8786 15.6192 22.8822C15.2095 22.8857 14.8148 22.7282 14.5202 22.4436L5.6811 13.6045C5.38817 13.3115 5.22362 12.9142 5.22362 12.4999C5.22362 12.0855 5.38817 11.6882 5.6811 11.3952L14.5202 2.55611C14.8132 2.26319 15.2105 2.09863 15.6248 2.09863C16.0392 2.09863 16.4365 2.26319 16.7295 2.55611Z" fill="#262626"/>
</svg>
