<svg width="41" height="41" viewBox="0 0 41 41" fill="none" xmlns="http://www.w3.org/2000/svg">
<rect width="41" height="41" rx="12" fill="#FF6D6D"/>
<path d="M12.4663 12.4667C12.7652 12.1682 13.1703 12.0006 13.5927 12.0006C14.0151 12.0006 14.4202 12.1682 14.7191 12.4667L20.4998 18.2453L26.2804 12.4667C26.4284 12.3188 26.604 12.2015 26.7972 12.1214C26.9905 12.0414 27.1976 12.0002 27.4068 12.0002C27.616 12.0002 27.8232 12.0414 28.0164 12.1214C28.2097 12.2015 28.3853 12.3188 28.5332 12.4667C28.6811 12.6146 28.7985 12.7902 28.8785 12.9835C28.9586 13.1768 28.9998 13.3839 28.9998 13.5931C28.9998 13.8023 28.9586 14.0094 28.8785 14.2027C28.7985 14.396 28.6811 14.5716 28.5332 14.7195L22.7547 20.5002L28.5332 26.2808C28.8319 26.5796 28.9998 26.9847 28.9998 27.4072C28.9998 27.8297 28.8319 28.2349 28.5332 28.5336C28.2345 28.8323 27.8293 29.0002 27.4068 29.0002C26.9844 29.0002 26.5792 28.8323 26.2804 28.5336L20.4998 22.755L14.7191 28.5336C14.4204 28.8323 14.0152 29.0002 13.5927 29.0002C13.1702 29.0002 12.7651 28.8323 12.4663 28.5336C12.1676 28.2349 11.9998 27.8297 11.9998 27.4072C11.9998 26.9847 12.1676 26.5796 12.4663 26.2808L18.2449 20.5002L12.4663 14.7195C12.1678 14.4206 12.0002 14.0155 12.0002 13.5931C12.0002 13.1707 12.1678 12.7656 12.4663 12.4667Z" fill="#F8FCF6"/>
</svg>
