<svg width="25" height="25" viewBox="0 0 25 25" fill="none" xmlns="http://www.w3.org/2000/svg">
<path d="M8.27047 2.55611C7.97754 2.84912 7.81299 3.24648 7.81299 3.6608C7.81299 4.07512 7.97754 4.47247 8.27047 4.76549L16.0048 12.4999L8.27047 20.2342C7.98585 20.5289 7.82835 20.9236 7.83191 21.3333C7.83547 21.743 7.9998 22.1349 8.2895 22.4246C8.5792 22.7143 8.97109 22.8786 9.38078 22.8822C9.79046 22.8857 10.1852 22.7282 10.4798 22.4436L19.3189 13.6045C19.6118 13.3115 19.7764 12.9142 19.7764 12.4999C19.7764 12.0855 19.6118 11.6882 19.3189 11.3952L10.4798 2.55611C10.1868 2.26319 9.78947 2.09863 9.37515 2.09863C8.96084 2.09863 8.56348 2.26319 8.27047 2.55611Z" fill="#262626"/>
</svg>
