<svg width="22" height="22" viewBox="0 0 22 22" fill="none" xmlns="http://www.w3.org/2000/svg">
<path d="M4.75879 11C4.75879 10.7514 4.85756 10.5129 5.03338 10.3371C5.20919 10.1613 5.44765 10.0625 5.69629 10.0625H10.0625V5.69629C10.0625 5.44765 10.1613 5.20919 10.3371 5.03338C10.5129 4.85756 10.7514 4.75879 11 4.75879C11.2487 4.75879 11.4871 4.85756 11.663 5.03338C11.8388 5.20919 11.9375 5.44765 11.9375 5.69629V10.0625H16.3038C16.5524 10.0625 16.7909 10.1613 16.9667 10.3371C17.1425 10.5129 17.2413 10.7514 17.2413 11C17.2413 11.2487 17.1425 11.4871 16.9667 11.663C16.7909 11.8388 16.5524 11.9375 16.3038 11.9375H11.9375V16.3038C11.9375 16.5524 11.8388 16.7909 11.663 16.9667C11.4871 17.1425 11.2487 17.2413 11 17.2413C10.7514 17.2413 10.5129 17.1425 10.3371 16.9667C10.1613 16.7909 10.0625 16.5524 10.0625 16.3038V11.9375H5.69629C5.44765 11.9375 5.20919 11.8388 5.03338 11.663C4.85756 11.4871 4.75879 11.2487 4.75879 11Z" fill="#8EBB5B"/>
<path fill-rule="evenodd" clip-rule="evenodd" d="M5.14608 0.711187C9.03666 0.279865 12.963 0.279865 16.8536 0.711187C19.1373 0.966187 20.9811 2.76494 21.2486 5.06119C21.7111 9.00744 21.7111 12.9937 21.2486 16.9399C20.9798 19.2362 19.1361 21.0337 16.8536 21.2899C12.963 21.7213 9.03666 21.7213 5.14608 21.2899C2.86233 21.0337 1.01858 19.2362 0.751083 16.9399C0.290655 12.9937 0.290655 9.00739 0.751083 5.06119C1.01858 2.76494 2.86358 0.966187 5.14608 0.711187ZM16.6461 2.57369C12.8934 2.15772 9.10626 2.15772 5.35358 2.57369C4.65889 2.65076 4.01046 2.95978 3.51306 3.45083C3.01565 3.94189 2.69832 4.58629 2.61233 5.27994C2.16775 9.08115 2.16775 12.9212 2.61233 16.7224C2.69858 17.4159 3.01603 18.06 3.51341 18.5508C4.01079 19.0416 4.65907 19.3504 5.35358 19.4274C9.07483 19.8424 12.9248 19.8424 16.6461 19.4274C17.3404 19.3502 17.9884 19.0412 18.4855 18.5504C18.9826 18.0596 19.2999 17.4157 19.3861 16.7224C19.8307 12.9212 19.8307 9.08115 19.3861 5.27994C19.2996 4.58693 18.9822 3.94325 18.4851 3.45272C17.988 2.96218 17.3402 2.65341 16.6461 2.57619" fill="#8EBB5B"/>
</svg>
