<svg width="45" height="45" viewBox="0 0 45 45" fill="none" xmlns="http://www.w3.org/2000/svg">
<path fill-rule="evenodd" clip-rule="evenodd" d="M0 22.5C0 10.0733 10.0733 0 22.5 0C34.9268 0 45 10.0733 45 22.5C45 34.9268 34.9268 45 22.5 45C10.0733 45 0 34.9268 0 22.5ZM22.5 4.5C17.7261 4.5 13.1477 6.39642 9.77208 9.77208C6.39642 13.1477 4.5 17.7261 4.5 22.5C4.5 27.2739 6.39642 31.8523 9.77208 35.2279C13.1477 38.6036 17.7261 40.5 22.5 40.5C27.2739 40.5 31.8523 38.6036 35.2279 35.2279C38.6036 31.8523 40.5 27.2739 40.5 22.5C40.5 17.7261 38.6036 13.1477 35.2279 9.77208C31.8523 6.39642 27.2739 4.5 22.5 4.5Z" fill="#8EBB5B"/>
<path fill-rule="evenodd" clip-rule="evenodd" d="M24.75 11.25C24.75 10.6533 24.5129 10.081 24.091 9.65901C23.669 9.23705 23.0967 9 22.5 9C21.9033 9 21.331 9.23705 20.909 9.65901C20.4871 10.081 20.25 10.6533 20.25 11.25V20.25H11.25C10.6533 20.25 10.081 20.4871 9.65901 20.909C9.23705 21.331 9 21.9033 9 22.5C9 23.0967 9.23705 23.669 9.65901 24.091C10.081 24.5129 10.6533 24.75 11.25 24.75H20.25V33.75C20.25 34.3467 20.4871 34.919 20.909 35.341C21.331 35.7629 21.9033 36 22.5 36C23.0967 36 23.669 35.7629 24.091 35.341C24.5129 34.919 24.75 34.3467 24.75 33.75V24.75H33.75C34.3467 24.75 34.919 24.5129 35.341 24.091C35.7629 23.669 36 23.0967 36 22.5C36 21.9033 35.7629 21.331 35.341 20.909C34.919 20.4871 34.3467 20.25 33.75 20.25H24.75V11.25Z" fill="#8EBB5B"/>
</svg>
