<svg width="32" height="32" viewBox="0 0 32 32" fill="none" xmlns="http://www.w3.org/2000/svg">
<g filter="url(#filter0_i_765_362)">
<path d="M22.4032 15.7399C22.4032 17.508 21.7008 19.2037 20.4505 20.454C19.2003 21.7042 17.5046 22.4066 15.7365 22.4066C13.9684 22.4066 12.2727 21.7042 11.0224 20.454C9.7722 19.2037 9.06982 17.508 9.06982 15.7399C9.06982 13.9718 9.7722 12.2761 11.0224 11.0259C12.2727 9.77562 13.9684 9.07324 15.7365 9.07324C17.5046 9.07324 19.2003 9.77562 20.4505 11.0259C21.7008 12.2761 22.4032 13.9718 22.4032 15.7399Z" fill="#A6B0BD"/>
</g>
<g filter="url(#filter1_i_765_362)">
<path fill-rule="evenodd" clip-rule="evenodd" d="M10.7647 0.406555C10.533 0.244087 10.2637 0.143308 9.9822 0.113716C9.70074 0.0841246 9.41637 0.126695 9.15591 0.237416C8.89545 0.348136 8.66748 0.523359 8.49348 0.746567C8.31948 0.969776 8.20518 1.23362 8.16137 1.51322L7.4247 6.21322C7.37116 6.55696 7.21139 6.87534 6.9678 7.12371C6.72421 7.37208 6.409 7.53801 6.06637 7.59822L1.3797 8.41989C1.10081 8.46863 0.838943 8.58762 0.618787 8.76562C0.398631 8.94362 0.227447 9.17477 0.121382 9.43727C0.0153168 9.69976 -0.0221328 9.98495 0.0125649 10.2659C0.0472626 10.5469 0.152964 10.8144 0.319699 11.0432L3.1247 14.8866C3.32962 15.1677 3.44141 15.506 3.4444 15.8539C3.44739 16.2018 3.34142 16.5419 3.14137 16.8266L0.408033 20.7216C0.245565 20.9533 0.144786 21.2226 0.115194 21.5041C0.0856024 21.7855 0.128173 22.0699 0.238893 22.3303C0.349614 22.5908 0.524837 22.8188 0.748045 22.9928C0.971254 23.1668 1.2351 23.2811 1.5147 23.3249L6.2147 24.0616C6.55814 24.1154 6.87614 24.2753 7.12419 24.5189C7.37224 24.7625 7.53792 25.0775 7.59803 25.4199L8.4197 30.1066C8.46845 30.3854 8.58743 30.6473 8.76543 30.8675C8.94343 31.0876 9.17458 31.2588 9.43708 31.3649C9.69957 31.4709 9.98476 31.5084 10.2657 31.4737C10.5467 31.439 10.8142 31.3333 11.043 31.1666L14.888 28.3616C15.1692 28.1566 15.5074 28.0448 15.8554 28.0419C16.2033 28.0389 16.5434 28.1448 16.828 28.3449L20.7214 31.0782C20.9531 31.2411 21.2226 31.3422 21.5043 31.372C21.7859 31.4018 22.0706 31.3593 22.3313 31.2486C22.592 31.1378 22.8202 30.9624 22.9943 30.739C23.1684 30.5156 23.2827 30.2514 23.3264 29.9716L24.0597 25.2716C24.1138 24.9276 24.2742 24.6093 24.5184 24.3612C24.7626 24.1131 25.0784 23.9477 25.4214 23.8882L30.108 23.0666C30.3868 23.0176 30.6485 22.8984 30.8684 22.7203C31.0884 22.5422 31.2593 22.3111 31.3652 22.0486C31.4711 21.7861 31.5084 21.501 31.4736 21.2202C31.4388 20.9393 31.3331 20.6719 31.1664 20.4432L28.363 16.5982C28.1579 16.3172 28.0458 15.9791 28.0425 15.6312C28.0392 15.2833 28.1449 14.943 28.3447 14.6582L31.078 10.7649C31.2409 10.5332 31.342 10.2639 31.3719 9.98235C31.4018 9.70077 31.3595 9.41622 31.2489 9.15555C31.1383 8.89487 30.9632 8.66667 30.7399 8.49246C30.5167 8.31826 30.2528 8.2038 29.973 8.15989L25.2714 7.42489C24.9277 7.37093 24.6095 7.21078 24.3614 6.96689C24.1134 6.723 23.9478 6.40759 23.888 6.06489L23.0664 1.37822C23.0174 1.09948 22.8982 0.8378 22.7201 0.61785C22.542 0.3979 22.3109 0.226926 22.0484 0.121041C21.7859 0.0151571 21.5008 -0.0221488 21.22 0.0126404C20.9391 0.0474296 20.6717 0.153168 20.443 0.319888L16.5997 3.12322C16.3185 3.32814 15.9803 3.43993 15.6324 3.44292C15.2845 3.44591 14.9443 3.33995 14.6597 3.13989L10.7647 0.406555ZM24.0697 15.7399C24.0697 17.95 23.1917 20.0696 21.6289 21.6324C20.0661 23.1952 17.9465 24.0732 15.7364 24.0732C13.5262 24.0732 11.4066 23.1952 9.84381 21.6324C8.28101 20.0696 7.40303 17.95 7.40303 15.7399C7.40303 13.5297 8.28101 11.4101 9.84381 9.84733C11.4066 8.28453 13.5262 7.40655 15.7364 7.40655C17.9465 7.40655 20.0661 8.28453 21.6289 9.84733C23.1917 11.4101 24.0697 13.5297 24.0697 15.7399Z" fill="#A6B0BD"/>
</g>
<defs>
<filter id="filter0_i_765_362" x="9.06982" y="9.07324" width="13.3335" height="17.3335" filterUnits="userSpaceOnUse" color-interpolation-filters="sRGB">
<feFlood flood-opacity="0" result="BackgroundImageFix"/>
<feBlend mode="normal" in="SourceGraphic" in2="BackgroundImageFix" result="shape"/>
<feColorMatrix in="SourceAlpha" type="matrix" values="0 0 0 0 0 0 0 0 0 0 0 0 0 0 0 0 0 0 127 0" result="hardAlpha"/>
<feOffset dy="4"/>
<feGaussianBlur stdDeviation="2"/>
<feComposite in2="hardAlpha" operator="arithmetic" k2="-1" k3="1"/>
<feColorMatrix type="matrix" values="0 0 0 0 0 0 0 0 0 0 0 0 0 0 0 0 0 0 0.25 0"/>
<feBlend mode="normal" in2="shape" result="effect1_innerShadow_765_362"/>
</filter>
<filter id="filter1_i_765_362" x="0" y="0" width="31.4863" height="35.4863" filterUnits="userSpaceOnUse" color-interpolation-filters="sRGB">
<feFlood flood-opacity="0" result="BackgroundImageFix"/>
<feBlend mode="normal" in="SourceGraphic" in2="BackgroundImageFix" result="shape"/>
<feColorMatrix in="SourceAlpha" type="matrix" values="0 0 0 0 0 0 0 0 0 0 0 0 0 0 0 0 0 0 127 0" result="hardAlpha"/>
<feOffset dy="4"/>
<feGaussianBlur stdDeviation="2"/>
<feComposite in2="hardAlpha" operator="arithmetic" k2="-1" k3="1"/>
<feColorMatrix type="matrix" values="0 0 0 0 0 0 0 0 0 0 0 0 0 0 0 0 0 0 0.25 0"/>
<feBlend mode="normal" in2="shape" result="effect1_innerShadow_765_362"/>
</filter>
</defs>
</svg>
