<svg width="125" height="125" viewBox="0 0 133 133" fill="none" xmlns="http://www.w3.org/2000/svg">
<g filter="url(#filter0_di_1159_211)">
<circle cx="66.5" cy="62.5" r="62.5" fill="#F26565"/>
<circle cx="66.5" cy="62.5" r="56.5" stroke="#444141" stroke-width="12"/>
</g>
<path d="M30.2719 30.3432C37.1493 21.961 49.3828 17.4912 49.3828 17.4912C47.8109 16.1423 36.0876 21.1467 29.2102 29.5289C22.3329 37.9111 18.811 48.1422 20.3829 49.4911C20.3829 49.4911 23.3945 38.7254 30.2719 30.3432Z" fill="white"/>
<path d="M100.867 94.7105C93.9898 103.093 83.6258 106.296 83.6258 106.296C85.1046 107.565 95.3301 104.095 102.207 95.7128C108.013 89.7144 112.631 80.5785 112.208 76.8595C112.208 76.8595 107.745 86.3283 100.867 94.7105Z" fill="white"/>
<path d="M37.4833 54.8312C38.6833 54.8312 39.2833 55.7312 39.2833 56.6312C39.2833 60.7512 35.8033 63.7912 31.7033 64.0512C31.3033 64.0712 30.8833 63.7312 30.8633 63.3712C30.8033 63.0512 31.1433 62.5512 31.5633 62.5312C35.1033 62.2112 37.5433 59.8912 37.6833 57.0512C37.6833 56.6112 37.6633 56.3112 36.7233 56.3112H31.6433C31.3433 56.3112 31.0033 55.9312 31.0033 55.5712C31.0033 55.2112 31.3233 54.8312 31.6633 54.8312H37.4833ZM44.8033 55.2312C45.0633 57.4512 45.0233 63.1312 44.8033 65.2912C44.7433 65.6912 44.3033 65.9712 43.9033 65.9312C43.4833 65.9112 43.1633 65.5712 43.1833 65.1512C43.4033 62.7712 43.3833 57.9712 43.1833 55.3712C43.1633 54.9512 43.4633 54.6512 43.8833 54.5912C44.3033 54.5512 44.7433 54.7912 44.8033 55.2312ZM44.8633 70.0512C43.4233 70.6712 41.0433 70.8512 39.2233 70.8712C37.4233 70.8712 34.8033 70.7112 33.7633 70.2912C33.2833 70.0912 32.8433 69.7712 32.7233 69.1912C32.5433 68.3912 32.5633 66.6912 32.6833 65.6112C32.7033 65.3312 33.0033 64.9712 33.5033 64.9712C33.9833 64.9712 34.2833 65.3712 34.2633 65.6712C34.1633 66.4512 34.1033 67.9712 34.2633 68.7512C34.2833 68.8312 34.3233 68.8712 34.4233 68.9112C35.0633 69.1712 37.6833 69.3912 39.3833 69.3912C41.0633 69.3912 42.9233 69.1312 44.2833 68.6912C44.5633 68.5712 45.0633 68.7112 45.1833 69.1312C45.3233 69.5312 45.1233 69.9312 44.8633 70.0512ZM59.4394 60.1112C59.3594 60.3912 59.0194 60.6912 58.5394 60.6112C58.0594 60.5312 57.8594 60.1312 57.8994 59.8912C58.0594 58.9712 58.2594 56.9312 58.1594 56.2512C58.1394 56.0912 58.1394 56.0912 57.8594 56.0912H49.0194C48.6994 56.0912 48.3794 55.7112 48.3794 55.3512C48.3794 54.9312 48.7794 54.6312 49.0594 54.6312H58.6194C59.1394 54.6312 59.5794 54.9312 59.6994 55.5112C59.8794 56.5112 59.7194 59.0512 59.4394 60.1112ZM47.1394 62.4512C46.7194 62.3912 46.3994 62.0112 46.4594 61.6112C46.5194 61.1712 46.8994 60.8912 47.2994 60.9512C50.4594 61.2512 57.7194 61.3112 60.8394 60.9512C61.2794 60.8912 61.6794 61.2112 61.6994 61.6112C61.7394 62.0112 61.3994 62.3912 61.0194 62.4512C58.6994 62.7512 49.8394 62.8312 47.1394 62.4512ZM49.7594 64.5912C49.6794 65.0112 49.6194 65.4912 49.5594 65.9912H57.2594C57.5994 65.9912 57.9394 66.3112 57.9394 66.7312C57.9394 67.0912 57.6794 67.4712 57.2794 67.4712H49.5194C49.5194 67.8912 49.5594 68.3112 49.6394 68.7112C49.6594 68.7912 49.6994 68.8312 49.8194 68.9112C50.3194 69.1712 52.4794 69.3512 54.2794 69.3512C56.2394 69.3512 57.9194 69.1712 58.5794 68.8912C58.6794 68.8312 58.7394 68.7912 58.7594 68.6512C58.9394 67.4912 58.8794 65.9312 58.6194 64.6112C58.5394 64.1912 58.8594 63.7912 59.2994 63.7312C59.7194 63.6912 60.1194 63.9512 60.1994 64.3312C60.4994 65.6712 60.5994 67.8912 60.2994 69.1912C60.1594 69.7712 59.7794 70.0712 59.2594 70.2912C58.2394 70.7312 56.0994 70.8712 54.1794 70.8712C52.1194 70.8712 50.1594 70.7312 49.1394 70.2912C48.6594 70.0912 48.2994 69.8712 48.0794 69.2112C47.8194 68.3312 47.8394 65.8912 48.1594 64.3312C48.2394 63.9512 48.6394 63.6912 49.0394 63.7312C49.4994 63.7912 49.8394 64.1712 49.7594 64.5912ZM70.6272 62.9312C70.2472 63.0912 69.7272 62.9512 69.5672 62.6312C69.3672 62.2512 69.5472 61.6912 69.9072 61.5312C72.0272 60.5712 73.7672 58.9112 73.7672 56.0112V55.1912C73.7672 54.9112 74.0872 54.5312 74.5472 54.5312C74.9872 54.5312 75.4072 54.8512 75.4072 55.1912V56.0112C75.4072 58.9112 73.8472 61.5512 70.6272 62.9312ZM76.5872 59.3112L79.5872 61.5512C79.9472 61.8312 79.8272 62.4312 79.5872 62.6712C79.2872 62.9712 78.7872 62.9512 78.4672 62.6912L75.4672 60.4312C75.1672 60.1912 75.1472 59.6512 75.4272 59.3512C75.6872 59.0512 76.2272 59.0312 76.5872 59.3112ZM83.5272 55.2312C83.6272 56.1512 83.6872 57.1712 83.6872 58.2312H85.3272C85.6272 58.2312 86.0072 58.5512 86.0072 58.9712C86.0072 59.3312 85.6872 59.7112 85.3472 59.7112H83.6872C83.6672 60.7712 83.6072 61.8112 83.5272 62.6912C83.5072 63.0912 83.0272 63.3712 82.6272 63.3312C82.2072 63.3112 81.8872 62.9712 81.9072 62.5512C82.1072 60.0912 82.0872 57.8712 81.9072 55.3712C81.8872 54.9512 82.1872 54.6512 82.6072 54.5912C83.0272 54.5512 83.4672 54.7912 83.5272 55.2312ZM84.0672 67.5112C84.0672 69.9512 81.1872 71.0712 77.6072 71.0712C74.0272 71.0712 71.1472 69.9512 71.1472 67.5112C71.1472 65.0712 74.0272 63.9512 77.6072 63.9512C81.1872 63.9512 84.0672 65.0712 84.0672 67.5112ZM82.4272 67.5312C82.4272 66.0912 80.4672 65.4512 77.5872 65.4512C74.7272 65.4512 72.7872 66.0912 72.7872 67.5312C72.7872 68.9512 74.7272 69.5712 77.5872 69.5712C80.4672 69.5712 82.4272 68.9512 82.4272 67.5312ZM96.2841 56.8912H95.2441C95.8641 57.0712 96.5441 57.8512 96.5441 58.8112C96.5441 60.7912 94.7441 61.6512 92.7841 61.8112V62.7512C94.1441 62.7512 95.5041 62.6712 96.8041 62.5112C97.2441 62.4512 97.6441 62.7712 97.6641 63.1712C97.7041 63.5712 97.3641 63.9512 96.9841 64.0112C94.6641 64.3112 89.6441 64.3912 86.9441 64.0112C86.5241 63.9512 86.2041 63.5712 86.2641 63.1712C86.3241 62.7312 86.7041 62.4512 87.1041 62.5112C88.4241 62.6312 89.7841 62.7312 91.1441 62.7512V61.8112C89.2241 61.6312 87.4241 60.8112 87.4241 58.8112C87.4241 57.8712 88.1041 57.0912 88.6841 56.8912H87.6641C87.3641 56.8912 87.0241 56.5112 87.0241 56.1512C87.0241 55.7912 87.3441 55.4112 87.6641 55.4112H91.1641V54.2512C91.1641 53.9512 91.4841 53.5712 91.9441 53.5712C92.3841 53.5712 92.8041 53.8912 92.8041 54.2312V55.4112H96.2841C96.5841 55.4112 96.9641 55.7312 96.9641 56.1512C96.9641 56.5112 96.6441 56.8912 96.2841 56.8912ZM94.9241 58.7112C94.9241 57.4312 93.6241 56.9712 91.9841 56.9712C90.2241 56.9712 89.0441 57.5112 89.0441 58.7112C89.0441 60.1312 90.6041 60.4112 91.9841 60.4112C93.4441 60.4112 94.9241 60.0512 94.9241 58.7112ZM100.484 55.2312C100.584 56.1512 100.644 57.3712 100.644 58.6312H102.284C102.584 58.6312 102.964 58.9512 102.964 59.3712C102.964 59.7312 102.644 60.1112 102.304 60.1112H100.644C100.624 61.4512 100.564 62.7512 100.484 63.6912C100.464 64.0912 99.9841 64.3712 99.5841 64.3312C99.1641 64.3112 98.8441 63.9712 98.8641 63.5512C99.0641 61.0912 99.0441 57.8712 98.8641 55.3712C98.8441 54.9512 99.1441 54.6512 99.5641 54.5912C99.9841 54.5512 100.424 54.7912 100.484 55.2312ZM100.664 68.1112C100.664 70.4312 97.7641 71.0712 94.2041 71.0712C90.6441 71.0712 87.7441 70.4112 87.7441 68.1112C87.7441 65.8112 90.6441 65.1512 94.2041 65.1512C97.7641 65.1512 100.664 65.8112 100.664 68.1112ZM99.0241 68.1312C99.0241 66.8712 97.0841 66.6512 94.1841 66.6512C91.3041 66.6512 89.3841 66.9112 89.3841 68.1312C89.3841 69.3512 91.3041 69.5712 94.1841 69.5712C97.0841 69.5712 99.0241 69.3112 99.0241 68.1312Z" fill="white"/>
<defs>
<filter id="filter0_di_1159_211" x="0" y="0" width="133" height="133" filterUnits="userSpaceOnUse" color-interpolation-filters="sRGB">
<feFlood flood-opacity="0" result="BackgroundImageFix"/>
<feColorMatrix in="SourceAlpha" type="matrix" values="0 0 0 0 0 0 0 0 0 0 0 0 0 0 0 0 0 0 127 0" result="hardAlpha"/>
<feOffset dy="4"/>
<feGaussianBlur stdDeviation="2"/>
<feComposite in2="hardAlpha" operator="out"/>
<feColorMatrix type="matrix" values="0 0 0 0 0 0 0 0 0 0 0 0 0 0 0 0 0 0 0.25 0"/>
<feBlend mode="normal" in2="BackgroundImageFix" result="effect1_dropShadow_1159_211"/>
<feBlend mode="normal" in="SourceGraphic" in2="effect1_dropShadow_1159_211" result="shape"/>
<feColorMatrix in="SourceAlpha" type="matrix" values="0 0 0 0 0 0 0 0 0 0 0 0 0 0 0 0 0 0 127 0" result="hardAlpha"/>
<feOffset dy="4"/>
<feGaussianBlur stdDeviation="2"/>
<feComposite in2="hardAlpha" operator="arithmetic" k2="-1" k3="1"/>
<feColorMatrix type="matrix" values="0 0 0 0 1 0 0 0 0 1 0 0 0 0 1 0 0 0 0.25 0"/>
<feBlend mode="normal" in2="shape" result="effect2_innerShadow_1159_211"/>
</filter>
</defs>
</svg>
