<svg width="35" height="30" viewBox="0 0 35 30" fill="none" xmlns="http://www.w3.org/2000/svg">
<path fill-rule="evenodd" clip-rule="evenodd" d="M29.5333 6.44289C29.7677 6.20881 30.0854 6.07733 30.4167 6.07733C30.7479 6.07733 31.0656 6.20881 31.3 6.44289L31.3033 6.44623L31.3083 6.44956L31.32 6.46123L31.3533 6.49456L31.4567 6.60956C31.54 6.70456 31.6567 6.83956 31.7917 7.01123C33.3316 9.01284 34.1666 11.4674 34.1667 13.9929C34.1666 16.5184 33.3316 18.9729 31.7917 20.9746C31.6521 21.1527 31.5053 21.3251 31.3517 21.4912L31.3183 21.5246L31.3083 21.5362L31.3033 21.5396L31.3017 21.5412L30.4517 20.6946L31.3017 21.5446C31.0672 21.7791 30.7491 21.9108 30.4175 21.9108C30.0859 21.9108 29.7678 21.7791 29.5333 21.5446C29.2988 21.3101 29.1671 20.992 29.1671 20.6604C29.1671 20.3288 29.2988 20.0107 29.5333 19.7762L29.5317 19.7779L29.5283 19.7796L29.5367 19.7712L29.5917 19.7112C29.645 19.6534 29.7222 19.5607 29.8233 19.4329C30.8777 18.0564 31.5096 16.4034 31.6421 14.6746C31.7747 12.9457 31.4022 11.2157 30.57 9.69456C30.3527 9.29424 30.103 8.9124 29.8233 8.55289C29.7328 8.43593 29.6372 8.32304 29.5367 8.21456L29.5283 8.20623C29.2959 7.97133 29.166 7.65396 29.1669 7.32353C29.1679 6.99309 29.2996 6.67647 29.5333 6.44289ZM19.645 0.486226C21.5833 -0.792108 24.1667 0.599559 24.1667 2.92123V26.7312C24.1667 29.0546 21.5833 30.4446 19.645 29.1662L9.645 22.5746C9.57735 22.5294 9.49798 22.5051 9.41667 22.5046H4.58333C3.36776 22.5046 2.20197 22.0217 1.34243 21.1621C0.482886 20.3026 0 19.1368 0 17.9212V11.7312C0 10.5156 0.482886 9.34986 1.34243 8.49032C2.20197 7.63078 3.36776 7.14789 4.58333 7.14789H9.41667C9.49838 7.14816 9.57836 7.1244 9.64667 7.07956L19.645 0.486226Z" fill="#8EBB5B"/>
</svg>
