<svg width="18" height="20" viewBox="0 0 18 20" fill="none" xmlns="http://www.w3.org/2000/svg">
<path d="M16.9999 4C17.2547 4.00028 17.4999 4.09788 17.6852 4.27285C17.8706 4.44782 17.9821 4.68695 17.997 4.94139C18.012 5.19584 17.9292 5.44638 17.7656 5.64183C17.602 5.83729 17.37 5.9629 17.1169 5.993L16.9999 6H16.9189L15.9999 17C15.9999 17.7652 15.7075 18.5015 15.1826 19.0583C14.6576 19.615 13.9398 19.9501 13.1759 19.995L12.9999 20H4.99987C3.40187 20 2.09587 18.751 2.00787 17.25L2.00287 17.083L1.07987 6H0.999869C0.744989 5.99972 0.499837 5.90212 0.3145 5.72715C0.129164 5.55218 0.0176337 5.31305 0.0026966 5.05861C-0.0122405 4.80416 0.0705433 4.55362 0.234134 4.35817C0.397724 4.16271 0.629773 4.0371 0.882869 4.007L0.999869 4H16.9999ZM7.51087 9.14C7.30135 9.01528 7.05348 8.9714 6.81388 9.01663C6.57428 9.06186 6.35946 9.19307 6.20982 9.38558C6.06018 9.5781 5.98603 9.81865 6.00133 10.062C6.01662 10.3054 6.1203 10.5347 6.29287 10.707L7.58487 12L6.29287 13.293L6.20987 13.387C6.05446 13.588 5.98138 13.8406 6.00547 14.0935C6.02956 14.3464 6.14902 14.5807 6.33959 14.7488C6.53016 14.9168 6.77754 15.006 7.03149 14.9982C7.28543 14.9905 7.52691 14.8863 7.70687 14.707L8.99987 13.415L10.2929 14.707L10.3869 14.79C10.5879 14.9454 10.8405 15.0185 11.0934 14.9944C11.3463 14.9703 11.5806 14.8508 11.7486 14.6603C11.9167 14.4697 12.0059 14.2223 11.9981 13.9684C11.9903 13.7144 11.8862 13.473 11.7069 13.293L10.4149 12L11.7069 10.707L11.7899 10.613C11.9453 10.412 12.0184 10.1594 11.9943 9.90647C11.9702 9.65355 11.8507 9.41928 11.6601 9.25125C11.4696 9.08321 11.2222 8.99402 10.9683 9.00177C10.7143 9.00953 10.4728 9.11365 10.2929 9.293L8.99987 10.585L7.70687 9.293L7.61287 9.21L7.51087 9.14ZM10.9999 0C11.5303 0 12.039 0.210714 12.4141 0.585786C12.7892 0.960859 12.9999 1.46957 12.9999 2C12.9996 2.25488 12.902 2.50003 12.727 2.68537C12.5521 2.8707 12.3129 2.98223 12.0585 2.99717C11.804 3.01211 11.5535 2.92933 11.358 2.76574C11.1626 2.60214 11.037 2.3701 11.0069 2.117L10.9999 2H6.99987L6.99287 2.117C6.96277 2.3701 6.83715 2.60214 6.6417 2.76574C6.44625 2.92933 6.19571 3.01211 5.94126 2.99717C5.68682 2.98223 5.44769 2.8707 5.27272 2.68537C5.09775 2.50003 5.00015 2.25488 4.99987 2C4.99971 1.49542 5.19028 1.00943 5.53337 0.639452C5.87646 0.269471 6.34671 0.0428433 6.84987 0.00500011L6.99987 0H10.9999Z" fill="#576373"/>
</svg>
